#usda 1.0
(
    "Converted from batchplan assets/franka/franka_panda.urdf"
    customLayerData = {
        string creator = "URDF USD Converter v0.3.3"
    }
    defaultPrim = "panda"
    kilogramsPerUnit = 1
    metersPerUnit = 1
    upAxis = "Z"
)

def Xform "panda" (
    prepend apiSchemas = ["GeomModelAPI"]
    assetInfo = {
        string name = "panda"
    }
    kind = "component"
    prepend payload = @./Payload/Contents.usda@
)
{
    float3[] extentsHint = [(3.4028235e38, 3.4028235e38, 3.4028235e38), (-3.4028235e38, -3.4028235e38, -3.4028235e38), (3.4028235e38, 3.4028235e38, 3.4028235e38), (-3.4028235e38, -3.4028235e38, -3.4028235e38), (3.4028235e38, 3.4028235e38, 3.4028235e38), (-3.4028235e38, -3.4028235e38, -3.4028235e38), (-0.154079, -0.129373, -0.000032), (0.1813678, 0.129904, 1.114681)]
}

def PhysicsScene "PhysicsScene" (
    prepend payload = @./Payload/Contents.usda@</PhysicsScene>
)
{
}

