#usda 1.0
(
    customLayerData = {
        string creator = "MuJoCo USD Converter v0.5.0"
    }
    defaultPrim = "Dual_wrist_camera"
    kilogramsPerUnit = 1
    metersPerUnit = 1
    upAxis = "Z"
)

def Xform "Dual_wrist_camera" (
    prepend apiSchemas = ["GeomModelAPI"]
    assetInfo = {
        string name = "Dual_wrist_camera"
    }
    kind = "component"
    prepend payload = @./Payload/Contents.usda@
)
{
    float3[] extentsHint = [(-0.07728081, -0.0375, -0.0030000014), (0.07728081, 0.0375, 0.1592492), (3.4028235e38, 3.4028235e38, 3.4028235e38), (-3.4028235e38, -3.4028235e38, -3.4028235e38), (3.4028235e38, 3.4028235e38, 3.4028235e38), (-3.4028235e38, -3.4028235e38, -3.4028235e38), (-0.07728081, -0.0375, 0.0074428157), (0.07728081, 0.0375, 0.1592492)]
}

def PhysicsScene "PhysicsScene" (
    prepend payload = @./Payload/Contents.usda@</PhysicsScene>
)
{
}

